<svg width="67" height="110" viewBox="0 0 67 110" fill="none" xmlns="http://www.w3.org/2000/svg">
<path d="M64.0083 1.17017C68.3706 5.19739 67.4471 13.85 61.2377 27.1281C42.1838 59.4955 26.1379 83.7309 13.0999 99.8341C20.2724 102.223 29.4332 101.028 40.5823 96.2486L41.6306 96.7388L43.1559 100.944C39.5393 108.678 27.6803 111.393 7.57891 109.091L0.769464 103.436L1.16163 102.598C43.2399 46.2491 61.7049 15.9909 56.5566 11.8233C52.8294 10.0803 46.3773 18.0496 37.2003 35.7313L33.3873 36.418C31.6634 35.6119 30.6217 32.7401 30.2621 27.8025C36.813 18.7722 43.314 11.791 49.7653 6.85886C56.2849 1.90196 61.0325 0.00572567 64.0083 1.17017Z" fill="black"/>
</svg>
