<svg width="69" height="93" viewBox="0 0 69 93" fill="none" xmlns="http://www.w3.org/2000/svg">
<path d="M66.4661 1.80332C69.1597 4.425 69.6151 7.44623 67.8324 10.867C65.8357 14.6982 58.3814 23.6599 45.4696 37.7521L50.0534 40.1409C60.8174 45.7506 63.2282 54.2567 57.2857 65.6592C49.7983 80.0264 31.8414 89.0534 3.41504 92.7403C0.549315 90.7829 -0.15857 88.413 1.29138 85.6308L0.265151 85.096C3.01788 82.8187 5.10314 81.9335 6.52091 82.4404L8.86242 84.7917C30.7999 81.2029 45.0963 73.0232 51.7519 60.2523C52.9641 57.9262 52.2376 53.9227 49.5724 48.2419C41.4538 44.0109 33.1488 46.0915 24.6574 54.4837L20.3192 55.9637L18.3352 54.9298C17.2938 53.9231 16.8596 51.6959 17.0325 48.2481C38.5153 34.7368 51.4316 23.8079 55.7815 15.4612L57.7425 11.6984L57.2838 10.2414L57.8186 9.2152C53.3488 6.88577 47.527 11.1014 40.3531 21.8622L40.8445 23.4232C39.8937 25.2476 37.061 26.1203 32.3465 26.0412C30.6229 24.563 29.9995 22.6432 30.4762 20.2817C45.3475 3.20884 57.3441 -2.95062 66.4661 1.80332Z" fill="black"/>
</svg>
