<svg width="163" height="19" viewBox="0 0 163 19" fill="none" xmlns="http://www.w3.org/2000/svg">
<circle cx="9.5" cy="9.5" r="9.5" fill="#FAB20B"/>
<path d="M27.125 18V0.545454H39.7045V4.36364H31.8636V7.36364H39.0568V11.1818H31.8636V14.1818H39.6705V18H27.125ZM47.7479 18.2727C46.4979 18.2727 45.4212 18.0511 44.5178 17.608C43.6143 17.1648 42.9212 16.571 42.4382 15.8267C41.9553 15.0824 41.7138 14.2614 41.7138 13.3636C41.7138 12.7102 41.8388 12.1335 42.0888 11.6335C42.3388 11.1278 42.6882 10.6648 43.1371 10.2443C43.5859 9.82386 44.1115 9.40909 44.7138 9L48.6683 6.54545C49.0661 6.29545 49.3359 6.03693 49.478 5.76989C49.62 5.49716 49.6911 5.25568 49.6911 5.04545C49.6911 4.76705 49.5888 4.51989 49.3842 4.30398C49.1797 4.08807 48.8615 3.98295 48.4297 3.98864C48.1626 3.98864 47.9325 4.03977 47.7393 4.14204C47.5462 4.23864 47.3956 4.375 47.2876 4.55114C47.1854 4.72727 47.1342 4.9375 47.1342 5.18182C47.1342 5.51704 47.2308 5.86079 47.424 6.21307C47.6172 6.55966 47.8814 6.93466 48.2166 7.33807C48.5518 7.74148 48.9297 8.19318 49.3501 8.69318L57.8047 18H53.1001L46.0092 10.5C45.6626 10.1307 45.2791 9.67898 44.8587 9.14489C44.4382 8.60511 44.0746 7.99716 43.7678 7.32102C43.4666 6.64489 43.3161 5.90909 43.3161 5.11364C43.3161 4.22727 43.5291 3.41761 43.9553 2.68466C44.3814 1.9517 44.978 1.36648 45.745 0.928977C46.5121 0.491477 47.407 0.272727 48.4297 0.272727C49.407 0.272727 50.2479 0.474432 50.9524 0.877841C51.6626 1.28125 52.2081 1.81818 52.5888 2.48864C52.9751 3.15909 53.1683 3.89773 53.1683 4.70454C53.1683 5.51704 52.9666 6.27557 52.5632 6.98011C52.1655 7.68466 51.5945 8.30114 50.8501 8.82955L47.2365 11.3864C46.9581 11.5795 46.7166 11.8011 46.5121 12.0511C46.3132 12.3011 46.2138 12.625 46.2138 13.0227C46.2138 13.3523 46.2905 13.6335 46.4439 13.8665C46.5973 14.0994 46.8132 14.2784 47.0916 14.4034C47.3757 14.5284 47.7081 14.5909 48.0888 14.5909C48.6683 14.5909 49.2479 14.4517 49.8274 14.1733C50.4126 13.8892 50.9467 13.4943 51.4297 12.9886C51.9126 12.4773 52.299 11.875 52.5888 11.1818C52.8842 10.483 53.032 9.72159 53.032 8.89773H56.7479C56.7479 9.90909 56.6428 10.8835 56.4325 11.821C56.2223 12.7585 55.8842 13.6165 55.4183 14.3949C54.9524 15.1733 54.3388 15.8295 53.5774 16.3636C53.3388 16.483 53.1058 16.5966 52.8786 16.7045C52.6513 16.8125 52.4183 16.9261 52.1797 17.0455C51.4808 17.4943 50.7507 17.8125 49.9893 18C49.228 18.1818 48.4808 18.2727 47.7479 18.2727ZM75.0845 7.09091H70.2777C70.2436 6.69318 70.1527 6.33239 70.005 6.00852C69.8629 5.68466 69.6641 5.40625 69.4084 5.17329C69.1584 4.93466 68.8544 4.75284 68.4964 4.62784C68.1385 4.49716 67.7322 4.43182 67.2777 4.43182C66.4822 4.43182 65.8089 4.625 65.2578 5.01136C64.7124 5.39773 64.2976 5.9517 64.0135 6.6733C63.7351 7.39489 63.5959 8.26136 63.5959 9.27273C63.5959 10.3409 63.7379 11.2358 64.022 11.9574C64.3118 12.6733 64.7294 13.2131 65.2749 13.5767C65.8203 13.9347 66.4766 14.1136 67.2436 14.1136C67.6811 14.1136 68.0732 14.0597 68.4197 13.9517C68.7663 13.8381 69.0675 13.6761 69.3232 13.4659C69.5788 13.2557 69.7862 13.0028 69.9453 12.7074C70.1101 12.4062 70.2209 12.0682 70.2777 11.6932L75.0845 11.7273C75.0277 12.4659 74.8203 13.2187 74.4624 13.9858C74.1044 14.7472 73.5959 15.4517 72.9368 16.0994C72.2834 16.7415 71.4737 17.2585 70.5078 17.6506C69.5419 18.0426 68.4197 18.2386 67.1413 18.2386C65.5391 18.2386 64.1016 17.8949 62.8288 17.2074C61.5618 16.5199 60.5589 15.5085 59.8203 14.1733C59.0874 12.8381 58.7209 11.2045 58.7209 9.27273C58.7209 7.32955 59.0959 5.69318 59.8459 4.36364C60.5959 3.02841 61.6072 2.01989 62.88 1.33807C64.1527 0.650568 65.5732 0.306818 67.1413 0.306818C68.2436 0.306818 69.2578 0.457386 70.1839 0.758522C71.1101 1.05966 71.9226 1.5 72.6214 2.07954C73.3203 2.65341 73.8828 3.3608 74.3089 4.2017C74.7351 5.04261 74.9936 6.00568 75.0845 7.09091ZM98.3111 7.09091H93.5043C93.4702 6.69318 93.3793 6.33239 93.2315 6.00852C93.0895 5.68466 92.8906 5.40625 92.6349 5.17329C92.3849 4.93466 92.081 4.75284 91.723 4.62784C91.3651 4.49716 90.9588 4.43182 90.5043 4.43182C89.7088 4.43182 89.0355 4.625 88.4844 5.01136C87.9389 5.39773 87.5241 5.9517 87.2401 6.6733C86.9616 7.39489 86.8224 8.26136 86.8224 9.27273C86.8224 10.3409 86.9645 11.2358 87.2486 11.9574C87.5384 12.6733 87.956 13.2131 88.5014 13.5767C89.0469 13.9347 89.7031 14.1136 90.4702 14.1136C90.9077 14.1136 91.2997 14.0597 91.6463 13.9517C91.9929 13.8381 92.294 13.6761 92.5497 13.4659C92.8054 13.2557 93.0128 13.0028 93.1719 12.7074C93.3366 12.4062 93.4474 12.0682 93.5043 11.6932L98.3111 11.7273C98.2543 12.4659 98.0469 13.2187 97.6889 13.9858C97.331 14.7472 96.8224 15.4517 96.1634 16.0994C95.5099 16.7415 94.7003 17.2585 93.7344 17.6506C92.7685 18.0426 91.6463 18.2386 90.3679 18.2386C88.7656 18.2386 87.3281 17.8949 86.0554 17.2074C84.7884 16.5199 83.7855 15.5085 83.0469 14.1733C82.3139 12.8381 81.9474 11.2045 81.9474 9.27273C81.9474 7.32955 82.3224 5.69318 83.0724 4.36364C83.8224 3.02841 84.8338 2.01989 86.1065 1.33807C87.3793 0.650568 88.7997 0.306818 90.3679 0.306818C91.4702 0.306818 92.4844 0.457386 93.4105 0.758522C94.3366 1.05966 95.1491 1.5 95.848 2.07954C96.5469 2.65341 97.1094 3.3608 97.5355 4.2017C97.9616 5.04261 98.2202 6.00568 98.3111 7.09091ZM104.177 18.2045C103.342 18.2045 102.603 18.0682 101.961 17.7955C101.325 17.517 100.825 17.0966 100.461 16.5341C100.097 15.9716 99.9155 15.2557 99.9155 14.3864C99.9155 13.6705 100.038 13.0597 100.282 12.554C100.526 12.0426 100.867 11.625 101.305 11.3011C101.742 10.9773 102.251 10.7301 102.83 10.5597C103.415 10.3892 104.046 10.2784 104.722 10.2273C105.455 10.1705 106.043 10.1023 106.487 10.0227C106.935 9.9375 107.259 9.82102 107.458 9.6733C107.657 9.51989 107.756 9.31818 107.756 9.06818V9.03409C107.756 8.69318 107.626 8.43182 107.364 8.25C107.103 8.06818 106.768 7.97727 106.359 7.97727C105.91 7.97727 105.543 8.0767 105.259 8.27557C104.981 8.46875 104.813 8.76705 104.756 9.17045H100.427C100.484 8.375 100.737 7.64205 101.185 6.97159C101.64 6.29545 102.302 5.75568 103.171 5.35227C104.04 4.94318 105.126 4.73864 106.427 4.73864C107.364 4.73864 108.205 4.84943 108.95 5.07102C109.694 5.28693 110.327 5.59091 110.85 5.98295C111.373 6.36932 111.771 6.82386 112.043 7.34659C112.322 7.86364 112.461 8.42614 112.461 9.03409V18H108.063V16.1591H107.961C107.7 16.6477 107.381 17.0426 107.006 17.3438C106.637 17.6449 106.214 17.8636 105.737 18C105.265 18.1364 104.745 18.2045 104.177 18.2045ZM105.711 15.2386C106.069 15.2386 106.404 15.1648 106.717 15.017C107.035 14.8693 107.293 14.6562 107.492 14.3778C107.691 14.0994 107.79 13.7614 107.79 13.3636V12.2727C107.665 12.3239 107.532 12.3722 107.39 12.4176C107.254 12.4631 107.106 12.5057 106.947 12.5455C106.793 12.5852 106.629 12.6222 106.452 12.6562C106.282 12.6903 106.103 12.7216 105.915 12.75C105.552 12.8068 105.254 12.9006 105.021 13.0312C104.793 13.1562 104.623 13.3125 104.509 13.5C104.401 13.6818 104.347 13.8864 104.347 14.1136C104.347 14.4773 104.475 14.7557 104.731 14.9489C104.987 15.142 105.313 15.2386 105.711 15.2386ZM114.709 18V4.90909H119.277V7.39773H119.413C119.652 6.47727 120.03 5.80398 120.547 5.37784C121.07 4.9517 121.68 4.73864 122.379 4.73864C122.584 4.73864 122.786 4.75568 122.984 4.78977C123.189 4.81818 123.385 4.8608 123.572 4.91761V8.93182C123.339 8.85227 123.053 8.79261 122.712 8.75284C122.371 8.71307 122.078 8.69318 121.834 8.69318C121.374 8.69318 120.959 8.7983 120.589 9.00852C120.226 9.21307 119.939 9.50284 119.729 9.87784C119.518 10.2472 119.413 10.6818 119.413 11.1818V18H114.709ZM130.638 18.2386C129.24 18.2386 128.036 17.9716 127.024 17.4375C126.018 16.8977 125.243 16.125 124.697 15.1193C124.158 14.108 123.888 12.8977 123.888 11.4886C123.888 10.1364 124.161 8.95455 124.706 7.94318C125.251 6.93182 126.021 6.14489 127.016 5.58239C128.01 5.01989 129.183 4.73864 130.536 4.73864C131.524 4.73864 132.419 4.89205 133.22 5.19886C134.021 5.50568 134.706 5.9517 135.274 6.53693C135.842 7.11648 136.28 7.82102 136.587 8.65057C136.893 9.48011 137.047 10.4148 137.047 11.4545V12.5455H125.354V9.95455H132.717C132.712 9.57955 132.615 9.25 132.428 8.96591C132.246 8.67614 131.999 8.4517 131.686 8.29261C131.379 8.12784 131.03 8.04545 130.638 8.04545C130.257 8.04545 129.908 8.12784 129.589 8.29261C129.271 8.4517 129.016 8.6733 128.822 8.95739C128.635 9.24148 128.536 9.57386 128.524 9.95455V12.75C128.524 13.1705 128.612 13.5455 128.788 13.875C128.964 14.2045 129.217 14.4631 129.547 14.6506C129.876 14.8381 130.274 14.9318 130.74 14.9318C131.064 14.9318 131.359 14.8864 131.626 14.7955C131.899 14.7045 132.132 14.5739 132.325 14.4034C132.518 14.2273 132.661 14.017 132.751 13.7727H137.047C136.899 14.6818 136.55 15.4716 135.999 16.142C135.447 16.8068 134.717 17.3239 133.808 17.6932C132.905 18.0568 131.848 18.2386 130.638 18.2386ZM145.239 18.2386C143.842 18.2386 142.637 17.9716 141.626 17.4375C140.62 16.8977 139.844 16.125 139.299 15.1193C138.759 14.108 138.489 12.8977 138.489 11.4886C138.489 10.1364 138.762 8.95455 139.308 7.94318C139.853 6.93182 140.623 6.14489 141.617 5.58239C142.612 5.01989 143.785 4.73864 145.137 4.73864C146.126 4.73864 147.021 4.89205 147.822 5.19886C148.623 5.50568 149.308 5.9517 149.876 6.53693C150.444 7.11648 150.881 7.82102 151.188 8.65057C151.495 9.48011 151.648 10.4148 151.648 11.4545V12.5455H139.955V9.95455H147.319C147.313 9.57955 147.217 9.25 147.029 8.96591C146.847 8.67614 146.6 8.4517 146.288 8.29261C145.981 8.12784 145.631 8.04545 145.239 8.04545C144.859 8.04545 144.509 8.12784 144.191 8.29261C143.873 8.4517 143.617 8.6733 143.424 8.95739C143.237 9.24148 143.137 9.57386 143.126 9.95455V12.75C143.126 13.1705 143.214 13.5455 143.39 13.875C143.566 14.2045 143.819 14.4631 144.148 14.6506C144.478 14.8381 144.876 14.9318 145.342 14.9318C145.665 14.9318 145.961 14.8864 146.228 14.7955C146.501 14.7045 146.734 14.5739 146.927 14.4034C147.12 14.2273 147.262 14.017 147.353 13.7727H151.648C151.501 14.6818 151.151 15.4716 150.6 16.142C150.049 16.8068 149.319 17.3239 148.41 17.6932C147.506 18.0568 146.45 18.2386 145.239 18.2386ZM153.568 18V4.90909H158.136V7.39773H158.273C158.511 6.47727 158.889 5.80398 159.406 5.37784C159.929 4.9517 160.54 4.73864 161.239 4.73864C161.443 4.73864 161.645 4.75568 161.844 4.78977C162.048 4.81818 162.244 4.8608 162.432 4.91761V8.93182C162.199 8.85227 161.912 8.79261 161.571 8.75284C161.23 8.71307 160.938 8.69318 160.693 8.69318C160.233 8.69318 159.818 8.7983 159.449 9.00852C159.085 9.21307 158.798 9.50284 158.588 9.87784C158.378 10.2472 158.273 10.6818 158.273 11.1818V18H153.568Z" fill="black"/>
</svg>
